<svg width="32" height="32" viewBox="0 0 32 32" fill="none" xmlns="http://www.w3.org/2000/svg" role="img" aria-label="Query-Land">
  <g fill="none" stroke="#211b17" stroke-width="2.1" stroke-linejoin="round">
    <path d="M16 3.4c5.6 0 9.4 4.2 11 8.1 1.9 4.6.4 9.3-3.1 12.4-3 2.6-8.4 3.6-13 1.4C6 23.2 3.6 18.2 4.7 13 5.8 7.9 10.3 3.4 16 3.4Z" />
    <path d="M16 9.1c3 0 5.2 2.2 5.9 4.6.8 2.8-.4 5.6-3 7-2.4 1.3-5.7.8-7.5-1.4-1.8-2.2-1.8-5.6.3-7.7 1.1-1.5 2.7-2.5 4.3-2.5Z" />
  </g>
  <circle cx="16" cy="16" r="2.7" fill="#ff5c00" />
</svg>
